# xmcd
# 
# Track frame offsets:
#     150
#     19657
#     32301
#     50423
#     68018
#     86567
#     96549
#     109599
#     122226
#     141078
#     153207
#     167114
# 
# Disc length: 2396
# 
# Revision: 0
# Processed by: cddbd v1.5.2PL0 Copyright (c) Steve Scherf et al.
# Submitted via: fre:ac v1.0.31
# 
DISCID=94095a0c
DTITLE=Bobby Bare - Hard Time Hungrys
DYEAR=0
DGENRE=Country
TTITLE0=Hard Time Hungrys
TTITLE1=The Farmer Feeds Us All
TTITLE2=Alimony
TTITLE3=Two For A Dollar
TTITLE4=Back Home In Huntsville Again
TTITLE5=Daddy´s Been Around The House Too Long
TTITLE6=Warm And Free
TTITLE7=Able Bodied Man
TTITLE8=$100.000 In Pennies
TTITLE9=Bottles And Boxes
TTITLE10=Truck Driver, Truck Driver
TTITLE11=The Unemployment Line
EXTD=
EXTT0=
EXTT1=
EXTT2=
EXTT3=
EXTT4=
EXTT5=
EXTT6=
EXTT7=
EXTT8=
EXTT9=
EXTT10=
EXTT11=
PLAYORDER=
